<svg width="16" height="16" viewBox="0 0 16 16" fill="none" xmlns="http://www.w3.org/2000/svg">
<path d="M3.20022 4.29817L2.97975 3.36778C2.96194 3.29308 2.9296 3.22262 2.88456 3.16042C2.83952 3.09822 2.78268 3.0455 2.71727 3.00527C2.65186 2.96505 2.57916 2.93809 2.50334 2.92596C2.42751 2.91382 2.35004 2.91674 2.27534 2.93455C2.20064 2.95235 2.13018 2.9847 2.06798 3.02973C2.00578 3.07477 1.95306 3.13162 1.91284 3.19703C1.87261 3.26244 1.84565 3.33513 1.83352 3.41096C1.82138 3.48678 1.8243 3.56426 1.84211 3.63896L2.42416 6.04431C2.46076 6.19391 2.55495 6.32301 2.68625 6.40352C2.81755 6.48404 2.97532 6.50945 3.12526 6.47423L5.53282 5.8988C6.29124 5.7136 6.01565 4.57597 5.25723 4.76116L4.09975 5.04116C4.71381 4.26597 5.54474 3.69114 6.48668 3.3899C7.42862 3.08867 8.43891 3.07467 9.38883 3.34969C10.3388 3.62471 11.1853 4.1763 11.8206 4.93418C12.4559 5.69205 12.8512 6.62191 12.9561 7.60526C13.0201 8.40337 14.2283 8.27329 14.118 7.47959C13.7807 4.31801 11.0909 1.96337 7.66258 1.99644C5.65187 2.19486 4.19014 3.05912 3.20022 4.29817ZM10.4582 10.0834C9.66888 10.2465 9.95329 11.4349 10.7294 11.221L11.8868 10.941C11.2742 11.719 10.4434 12.2965 9.50067 12.5996C8.55796 12.9027 7.54625 12.9177 6.595 12.6426C5.64374 12.3675 4.79619 11.8148 4.1608 11.0553C3.52541 10.2958 3.13107 9.364 3.02825 8.37911C3.02435 8.29959 3.00424 8.22169 2.96914 8.15022C2.93405 8.07875 2.88472 8.0152 2.82417 7.96349C2.76363 7.91177 2.69315 7.87298 2.61708 7.84948C2.541 7.82599 2.46092 7.8183 2.38176 7.82688C2.3026 7.83545 2.22602 7.86012 2.15674 7.89937C2.08746 7.93861 2.02693 7.9916 1.97887 8.05509C1.93081 8.11857 1.89624 8.19121 1.87727 8.26854C1.8583 8.34587 1.85534 8.42627 1.86857 8.50478C2.04403 10.1258 2.85501 11.6111 4.12376 12.6352C5.39251 13.6593 7.01552 14.1386 8.63707 13.9681C9.44518 13.8811 10.2279 13.6344 10.9399 13.2423C11.6518 12.8502 12.2787 12.3205 12.7842 11.684L13.009 12.6166C13.1523 13.4323 14.3848 13.1369 14.1423 12.3454L13.5668 9.93785C13.5007 9.66006 13.2449 9.47045 12.9098 9.49691L10.4582 10.0834Z" fill="black"/>
</svg>
