<svg width="308" height="460" viewBox="0 0 308 460" fill="none" xmlns="http://www.w3.org/2000/svg">
<g clip-path="url(#clip0_147_1752)">
<rect width="308" height="460" rx="12" fill="#09DAB4"/>
<g opacity="0.3">
<path d="M308 345.938C311.152 345.938 314.233 345.003 316.854 343.252C319.475 341.5 321.518 339.011 322.724 336.099C323.931 333.187 324.246 329.982 323.631 326.891C323.016 323.799 321.498 320.959 319.27 318.73C317.041 316.502 314.201 314.984 311.109 314.369C308.018 313.754 304.813 314.069 301.901 315.276C298.989 316.482 296.5 318.525 294.748 321.146C292.997 323.767 292.062 326.848 292.062 330C292.062 334.227 293.742 338.281 296.73 341.27C299.719 344.258 303.773 345.938 308 345.938ZM308 324.688C309.051 324.688 310.078 324.999 310.951 325.583C311.825 326.167 312.506 326.996 312.908 327.967C313.31 328.938 313.415 330.006 313.21 331.036C313.005 332.067 312.499 333.014 311.757 333.757C311.014 334.499 310.067 335.005 309.036 335.21C308.006 335.415 306.938 335.31 305.967 334.908C304.996 334.506 304.167 333.825 303.583 332.951C302.999 332.078 302.688 331.051 302.688 330C302.688 328.591 303.247 327.24 304.243 326.243C305.24 325.247 306.591 324.688 308 324.688Z" fill="white"/>
<path d="M308 367.188C315.355 367.188 322.545 365.007 328.66 360.92C334.776 356.834 339.542 351.026 342.357 344.231C345.171 337.436 345.908 329.959 344.473 322.745C343.038 315.531 339.496 308.905 334.296 303.704C329.095 298.504 322.469 294.962 315.255 293.527C308.041 292.092 300.564 292.829 293.769 295.643C286.974 298.458 281.166 303.224 277.08 309.34C272.994 315.455 270.812 322.645 270.812 330C270.824 339.859 274.745 349.312 281.717 356.283C288.688 363.255 298.141 367.176 308 367.188ZM308 303.438C313.254 303.438 318.389 304.995 322.757 307.914C327.126 310.833 330.53 314.981 332.541 319.835C334.551 324.689 335.077 330.029 334.052 335.182C333.027 340.335 330.497 345.068 326.783 348.783C323.068 352.497 318.335 355.027 313.182 356.052C308.029 357.077 302.689 356.551 297.835 354.541C292.981 352.53 288.833 349.126 285.914 344.757C282.995 340.389 281.438 335.254 281.438 330C281.446 322.958 284.247 316.206 289.227 311.227C294.206 306.247 300.958 303.446 308 303.438Z" fill="white"/>
<path d="M160.875 344.445C162.023 345.561 163.176 346.724 164.355 347.909C171.564 355.176 180.292 363.947 193.845 366.476C191.88 369.162 189.715 371.697 187.369 374.057C186.787 374.638 186.349 375.346 186.088 376.126C185.827 376.905 185.75 377.735 185.864 378.549C185.978 379.363 186.279 380.139 186.744 380.817C187.208 381.495 187.824 382.056 188.543 382.456C196.081 386.798 204.265 389.91 212.784 391.673C209.757 402.67 207.84 413.943 207.062 425.322C207.021 426.045 207.128 426.769 207.376 427.449C207.625 428.128 208.009 428.75 208.507 429.276C209.004 429.802 209.604 430.221 210.269 430.506C210.934 430.792 211.651 430.939 212.375 430.938H212.677C224.073 430.159 235.362 428.238 246.375 425.206C248.117 433.728 251.214 441.916 255.549 449.457C255.948 450.176 256.509 450.792 257.187 451.258C257.864 451.723 258.641 452.025 259.455 452.139C260.269 452.253 261.099 452.177 261.878 451.916C262.658 451.656 263.367 451.218 263.948 450.636C266.308 448.285 268.842 446.115 271.529 444.145C274.053 457.723 282.829 466.457 290.123 473.65C291.308 474.824 292.466 475.977 293.587 477.135C300.275 484.041 304.371 487.92 304.371 487.92C305.358 488.854 306.665 489.374 308.023 489.374C309.382 489.374 310.689 488.854 311.676 487.92C311.676 487.92 315.751 484.063 322.45 477.156C323.56 476.004 324.718 474.851 325.903 473.677C333.17 466.462 341.952 457.739 344.496 444.182C347.184 446.147 349.719 448.313 352.077 450.663C352.659 451.244 353.368 451.682 354.147 451.943C354.927 452.204 355.757 452.28 356.571 452.165C357.385 452.051 358.161 451.749 358.839 451.284C359.517 450.819 360.077 450.202 360.476 449.484C364.805 441.932 367.893 433.735 369.625 425.206C380.637 428.238 391.926 430.159 403.322 430.938H403.625C404.348 430.939 405.065 430.792 405.73 430.506C406.395 430.221 406.995 429.802 407.492 429.276C407.99 428.75 408.375 428.128 408.623 427.449C408.871 426.769 408.978 426.045 408.937 425.322C408.163 413.943 406.249 402.671 403.226 391.673C411.745 389.91 419.928 386.798 427.467 382.456C428.185 382.056 428.801 381.495 429.266 380.817C429.731 380.139 430.032 379.363 430.146 378.549C430.26 377.735 430.183 376.905 429.922 376.126C429.661 375.346 429.222 374.638 428.641 374.057C426.294 371.694 424.126 369.16 422.155 366.476C435.733 363.952 444.467 355.181 451.655 347.909C452.834 346.724 453.987 345.561 455.14 344.44C458.805 340.914 462.402 337.319 465.93 333.655C466.865 332.668 467.387 331.36 467.387 330C467.387 328.64 466.865 327.332 465.93 326.345C465.93 326.345 462.046 322.249 455.135 315.556C453.987 314.44 452.834 313.276 451.655 312.092C444.446 304.824 435.717 296.053 422.165 293.498C424.13 290.812 426.295 288.277 428.641 285.917C429.222 285.336 429.661 284.628 429.922 283.848C430.183 283.069 430.26 282.239 430.146 281.425C430.032 280.611 429.731 279.834 429.266 279.156C428.801 278.479 428.185 277.918 427.467 277.518C419.919 273.193 411.725 270.106 403.2 268.375C406.234 257.363 408.156 246.074 408.937 234.678C408.98 233.931 408.864 233.183 408.598 232.483C408.331 231.784 407.92 231.149 407.391 230.619C406.856 230.095 406.218 229.686 405.518 229.418C404.818 229.15 404.071 229.029 403.322 229.063C391.926 229.842 380.637 231.762 369.625 234.795C367.882 226.273 364.785 218.085 360.45 210.543C360.048 209.83 359.486 209.218 358.809 208.757C358.132 208.297 357.357 207.999 356.545 207.887C355.732 207.779 354.904 207.858 354.125 208.118C353.347 208.377 352.637 208.811 352.051 209.385C349.691 211.737 347.157 213.907 344.47 215.877C341.946 202.298 333.17 193.565 325.876 186.371C324.71 185.222 323.555 184.06 322.412 182.886C315.724 175.98 311.623 172.102 311.623 172.102C310.636 171.168 309.329 170.647 307.97 170.647C306.612 170.647 305.305 171.168 304.318 172.102C304.318 172.102 300.222 175.986 293.523 182.892C292.413 184.045 291.255 185.197 290.07 186.371C282.802 193.586 274.021 202.309 271.476 215.866C268.787 213.903 266.253 211.736 263.895 209.385C263.311 208.808 262.602 208.373 261.822 208.113C261.043 207.854 260.215 207.776 259.401 207.887C258.589 207.999 257.814 208.297 257.137 208.757C256.46 209.218 255.898 209.83 255.496 210.543C251.18 218.088 248.1 226.276 246.375 234.795C235.362 231.762 224.073 229.842 212.677 229.063C211.931 229.032 211.186 229.154 210.488 229.42C209.79 229.687 209.154 230.093 208.619 230.614C208.09 231.143 207.678 231.779 207.412 232.478C207.146 233.178 207.03 233.925 207.073 234.673C207.847 246.07 209.763 257.361 212.794 268.375C204.271 270.115 196.083 273.213 188.543 277.55C187.824 277.95 187.208 278.51 186.744 279.188C186.279 279.866 185.978 280.643 185.864 281.457C185.75 282.271 185.827 283.101 186.088 283.88C186.349 284.659 186.787 285.368 187.369 285.949C189.716 288.312 191.884 290.846 193.855 293.53C180.276 296.053 171.569 304.824 164.355 312.124C163.176 313.308 162.023 314.472 160.87 315.593C157.205 319.118 153.607 322.714 150.08 326.377C149.145 327.364 148.623 328.672 148.623 330.032C148.623 331.392 149.145 332.7 150.08 333.687C150.08 333.687 153.964 337.751 160.875 344.445ZM245.259 414.432C236.435 417.039 227.388 418.817 218.234 419.744C219.158 410.593 220.936 401.549 223.547 392.73C230.044 392.731 236.474 391.419 242.451 388.874C248.429 386.329 253.831 382.603 258.333 377.919C258.896 378.503 259.47 379.072 260.054 379.635C255.369 384.138 251.643 389.542 249.101 395.521C246.558 401.501 245.251 407.934 245.259 414.432ZM249.822 324.688C250.193 320.421 251.036 316.209 252.335 312.129C254.645 305.002 258.309 298.387 263.125 292.648L267.051 296.574L274.563 289.062L270.637 285.136C279.676 277.477 290.88 272.828 302.687 271.839V282.188H313.312V271.839C325.115 272.825 336.317 277.467 345.357 285.12L341.431 289.046L348.943 296.558L352.869 292.632C360.521 301.679 365.171 312.881 366.177 324.688H355.812V335.313H366.177C365.171 347.116 360.52 358.314 352.869 367.358L348.943 363.432L341.431 370.944L345.357 374.87C336.318 382.526 325.116 387.173 313.312 388.161V377.813H302.687V388.161C290.884 387.176 279.682 382.533 270.642 374.88L274.568 370.954L267.056 363.442L263.13 367.368C258.314 361.629 254.65 355.015 252.341 347.887C251.038 343.802 250.194 339.585 249.822 335.313H260.187V324.688H249.822ZM292.062 260.938C292.062 251.678 301.428 236.5 308 227.288C314.576 236.5 323.937 251.662 323.937 260.938C323.91 261.545 323.848 262.149 323.751 262.749C313.385 260.369 302.614 260.369 292.248 262.749C292.152 262.149 292.09 261.545 292.062 260.938ZM323.937 399.063C323.937 408.322 314.571 423.5 308 432.712C301.423 423.5 292.062 408.338 292.062 399.063C292.089 398.458 292.151 397.854 292.248 397.256C302.611 399.664 313.388 399.664 323.751 397.256C323.848 397.854 323.91 398.458 323.937 399.063ZM354.25 438.253C350.315 434.407 345.3 431.855 339.875 430.938C338.466 430.938 337.114 431.497 336.118 432.494C335.122 433.49 334.562 434.841 334.562 436.25C334.562 450.063 326.354 458.233 318.423 466.106C317.185 467.339 315.968 468.545 314.81 469.74L313.312 471.27V457.5H302.687V471.27C302.182 470.739 301.741 470.309 301.2 469.746C300.031 468.545 298.814 467.339 297.576 466.106C289.645 458.233 281.437 450.089 281.437 436.25C281.437 434.841 280.877 433.49 279.881 432.494C278.885 431.497 277.534 430.938 276.125 430.938C270.699 431.855 265.684 434.407 261.749 438.253C248.871 410.4 260.081 393.963 268.336 386.414C272.584 389.409 277.157 391.913 281.968 393.878C281.618 395.584 281.44 397.321 281.437 399.063C281.437 416.366 301.556 442.014 303.851 444.883C304.348 445.505 304.98 446.008 305.698 446.353C306.416 446.698 307.203 446.878 308 446.878C308.796 446.878 309.583 446.698 310.301 446.353C311.02 446.008 311.651 445.505 312.149 444.883C314.444 442.014 334.562 416.366 334.562 399.063C334.559 397.321 334.381 395.584 334.031 393.878C338.845 391.912 343.422 389.408 347.673 386.414C355.918 393.963 367.128 410.4 354.25 438.253ZM370.719 414.432C370.722 407.937 369.412 401.508 366.867 395.533C364.321 389.558 360.594 384.159 355.908 379.661C356.492 379.093 357.066 378.525 357.629 377.94C362.131 382.624 367.533 386.35 373.511 388.896C379.488 391.441 385.918 392.752 392.415 392.751C395.02 401.572 396.798 410.616 397.728 419.766C388.586 418.829 379.551 417.044 370.74 414.432H370.719ZM416.231 283.744C412.391 287.683 409.846 292.7 408.937 298.125C408.937 299.534 409.497 300.885 410.493 301.882C411.489 302.878 412.841 303.438 414.25 303.438C428.062 303.438 436.233 311.64 444.101 319.577C445.333 320.815 446.539 322.031 447.745 323.19C448.308 323.721 448.749 324.178 449.27 324.688H435.5V335.313H449.27L447.75 336.806C446.539 337.969 445.333 339.186 444.101 340.423C436.233 348.36 428.062 356.563 414.25 356.563C412.841 356.563 411.489 357.122 410.493 358.119C409.497 359.115 408.937 360.466 408.937 361.875C409.853 367.301 412.406 372.317 416.252 376.251C388.394 389.128 371.957 377.914 364.413 369.669C367.4 365.417 369.895 360.84 371.851 356.026C373.565 356.379 375.311 356.559 377.062 356.563C394.365 356.563 420.014 336.444 422.882 334.149C423.505 333.652 424.007 333.02 424.353 332.302C424.698 331.584 424.877 330.797 424.877 330C424.877 329.203 424.698 328.417 424.353 327.698C424.007 326.98 423.505 326.349 422.882 325.851C420.014 323.556 394.365 303.438 377.062 303.438C375.319 303.441 373.58 303.619 371.872 303.969C369.918 299.156 367.423 294.581 364.434 290.332C371.957 282.087 388.394 270.872 416.252 283.75L416.231 283.744ZM375.256 314.249C375.854 314.152 376.457 314.09 377.062 314.063C386.322 314.063 401.5 323.423 410.711 330C401.5 336.577 386.338 345.938 377.062 345.938C376.457 345.911 375.854 345.848 375.256 345.752C377.664 335.389 377.664 324.612 375.256 314.249ZM370.74 245.569C379.564 242.962 388.611 241.183 397.765 240.256C396.841 249.412 395.063 258.462 392.452 267.286C385.958 267.284 379.53 268.595 373.554 271.14C367.579 273.685 362.18 277.412 357.682 282.097C357.114 281.508 356.54 280.929 355.95 280.366C360.634 275.862 364.359 270.458 366.901 264.478C369.443 258.498 370.749 252.066 370.74 245.569ZM261.749 221.747C265.684 225.593 270.699 228.145 276.125 229.063C277.534 229.063 278.885 228.503 279.881 227.507C280.877 226.51 281.437 225.159 281.437 223.75C281.437 209.911 289.645 201.767 297.576 193.894C298.814 192.661 300.031 191.456 301.189 190.26L302.687 188.73V202.5H313.312V188.73C313.817 189.261 314.258 189.692 314.8 190.255C315.968 191.456 317.185 192.661 318.423 193.894C326.354 201.767 334.562 209.938 334.562 223.75C334.562 225.159 335.122 226.51 336.118 227.507C337.114 228.503 338.466 229.063 339.875 229.063C345.3 228.145 350.315 225.593 354.25 221.747C367.128 249.601 355.918 266.038 347.663 273.587C343.415 270.592 338.842 268.088 334.031 266.123C334.381 264.417 334.559 262.679 334.562 260.938C334.562 243.635 314.444 217.986 312.149 215.117C311.632 214.525 310.994 214.049 310.279 213.724C309.563 213.398 308.786 213.23 308 213.23C307.213 213.23 306.436 213.398 305.72 213.724C305.005 214.049 304.367 214.525 303.851 215.117C301.556 217.986 281.437 243.635 281.437 260.938C281.44 262.679 281.618 264.417 281.968 266.123C277.155 268.087 272.58 270.591 268.331 273.587C260.081 266.038 248.871 249.601 261.749 221.747ZM245.28 245.569C245.278 252.064 246.588 258.493 249.134 264.469C251.679 270.446 255.406 275.845 260.091 280.344C259.504 280.907 258.928 281.483 258.365 282.071C253.866 277.384 248.465 273.656 242.488 271.111C236.511 268.565 230.081 267.255 223.584 267.26C220.979 258.436 219.201 249.388 218.271 240.235C227.413 241.171 236.448 242.957 245.259 245.569H245.28ZM168.249 323.195C169.46 322.031 170.666 320.815 171.899 319.577C179.766 311.64 187.937 303.438 201.75 303.438C203.159 303.438 204.51 302.878 205.506 301.882C206.502 300.885 207.062 299.534 207.062 298.125C206.146 292.7 203.593 287.684 199.747 283.75C227.595 270.861 244.037 282.081 251.586 290.337C248.598 294.586 246.103 299.161 244.149 303.974C242.434 303.621 240.688 303.441 238.937 303.438C221.634 303.438 195.986 323.556 193.117 325.851C192.494 326.349 191.992 326.98 191.647 327.698C191.301 328.417 191.122 329.203 191.122 330C191.122 330.797 191.301 331.584 191.647 332.302C191.992 333.02 192.494 333.652 193.117 334.149C195.986 336.444 221.634 356.563 238.937 356.563C240.681 356.56 242.419 356.382 244.127 356.031C246.081 360.845 248.577 365.42 251.565 369.669C244.016 377.919 227.584 389.128 199.726 376.256C203.581 372.323 206.141 367.305 207.062 361.875C207.062 360.466 206.502 359.115 205.506 358.119C204.51 357.122 203.159 356.563 201.75 356.563C187.937 356.563 179.766 348.36 171.899 340.423C170.666 339.186 169.46 337.969 168.254 336.811C167.691 336.28 167.25 335.823 166.73 335.313H180.5V324.688H166.73L168.249 323.195ZM240.754 345.831C240.151 345.901 239.544 345.937 238.937 345.938C229.677 345.938 214.5 336.577 205.288 330C214.5 323.423 229.661 314.063 238.937 314.063C239.544 314.064 240.151 314.099 240.754 314.169C238.331 324.584 238.331 335.416 240.754 345.831Z" fill="white"/>
</g>
</g>
<defs>
<clipPath id="clip0_147_1752">
<rect width="308" height="460" rx="12" fill="white"/>
</clipPath>
</defs>
</svg>
