<svg width="350" height="350" viewBox="0 0 350 350" fill="none" xmlns="http://www.w3.org/2000/svg">
<g clip-path="url(#clip0_147_1856)">
<path d="M82.7148 113.477H62.207C62.207 126.827 70.8053 138.102 82.7148 142.35V164.746H145.649C148.75 158.875 145.826 164.456 166.285 123.73H92.9688C87.3113 123.73 82.7148 119.134 82.7148 113.477ZM257.031 123.73H183.717C205.42 166.927 200.953 158.313 204.356 164.746H267.285V142.35C279.195 138.102 287.793 126.827 287.793 113.477H267.285C267.285 119.134 262.689 123.73 257.031 123.73ZM298.047 185.254H216.279C224.313 198.09 234.564 212.797 246.071 226.27H308.301V203.873C320.21 199.626 328.809 188.351 328.809 175H308.301C308.301 180.657 303.704 185.254 298.047 185.254ZM103.929 226.27C115.437 212.797 125.69 198.089 133.724 185.254H51.9531C46.2957 185.254 41.6992 180.657 41.6992 175H21.1914C21.1914 188.351 29.7896 199.626 41.6992 203.873V226.27H103.929ZM175 152.109L165.828 170.414C165.481 171.114 144.233 212.782 113.477 246.287V350H144.238V267.285H205.762V350H236.523V246.287C205.767 212.782 184.519 171.113 184.172 170.414L175 152.109Z" fill="#1D2024"/>
<path d="M164.746 287.793H185.254V350H164.746V287.793ZM92.9688 265.755C77.0444 278.703 59.6183 287.793 41.6992 287.793V308.301C48.6712 308.301 55.5058 307.186 62.207 305.35V329.492H0V350H92.9688V265.755ZM350 329.492H287.793V305.35C294.494 307.185 301.329 308.301 308.301 308.301V287.793C290.382 287.793 272.956 278.703 257.031 265.755V350H350V329.492ZM164.746 0V10.2539C164.746 36.0726 155.41 67.8911 144.238 90.5557V103.223H205.762V90.5454C194.638 67.9834 185.254 36.1594 185.254 10.2539V0H164.746Z" fill="#1D2024"/>
</g>
<defs>
<clipPath id="clip0_147_1856">
<rect width="350" height="350" fill="white"/>
</clipPath>
</defs>
</svg>
