<svg width="9" height="9" viewBox="0 0 9 9" fill="none" xmlns="http://www.w3.org/2000/svg">
<path d="M3.76463 0.267716L6.06185 0.367287C6.039 0.894446 5.87361 1.33858 5.68718 1.83913C5.49064 2.36682 5.27072 2.9572 5.16992 3.77365C5.9046 3.48642 6.40274 3.12833 6.84792 2.80826C7.27023 2.50466 7.64494 2.23528 8.12881 2.09305L8.73913 4.42104C8.25526 4.56327 7.80304 4.53696 7.29337 4.50732C6.75606 4.47606 6.15489 4.44109 5.38549 4.59596C5.86926 5.24047 6.34509 5.62634 6.77034 5.97121L6.77074 5.97153L6.77129 5.97194C7.17423 6.29885 7.53204 6.58907 7.80806 7.02806L5.88802 8.36726C5.61183 7.92801 5.49772 7.46761 5.36916 6.94874C5.23362 6.40173 5.08197 5.78973 4.70729 5.06899C4.27165 5.75461 4.06762 6.35119 3.88526 6.88442C3.71228 7.39023 3.55877 7.83902 3.2456 8.25273L1.44864 6.75242C1.76181 6.33872 2.14352 6.08049 2.57372 5.78946C3.02722 5.48267 3.53479 5.1393 4.07256 4.53905C3.3195 4.31819 2.71751 4.30101 2.1795 4.28566C1.66918 4.2711 1.21639 4.25818 0.746635 4.07461L1.55609 1.80816C2.02585 1.99173 2.37584 2.29253 2.7703 2.63153C3.18616 2.98892 3.65145 3.38878 4.35852 3.73851C4.32874 2.91638 4.16069 2.30918 4.01054 1.76646C3.86812 1.25166 3.74178 0.794875 3.76463 0.267716Z" fill="black"/>
</svg>
