<svg width="462" height="45" viewBox="0 0 462 45" fill="none" xmlns="http://www.w3.org/2000/svg">
<rect x="0.5" y="0.5" width="91.8" height="43.8" rx="21.9" stroke="white"/>
<g clip-path="url(#clip0_147_1683)">
<path d="M32.9845 18.5272L32.9816 18.5268C32.8094 18.4984 32.6327 18.5359 32.4869 18.6319C32.341 18.7278 32.2366 18.8751 32.1945 19.0445C32.1521 19.2144 32.1754 19.394 32.2598 19.5474C32.3441 19.7008 32.4833 19.8168 32.6494 19.872L42.3642 23.1044L39.1326 24.3913C39.0184 24.4367 38.9222 24.5184 38.8587 24.6237C38.7953 24.7291 38.7681 24.8523 38.7814 24.9745C38.7946 25.0968 38.8476 25.2113 38.9321 25.3006C39.0167 25.3899 39.1282 25.449 39.2495 25.4689L41.3679 25.8176C41.4287 25.8276 41.4908 25.8275 41.5516 25.8174L49.6021 24.4784L57.356 25.7415C60.32 26.1833 60.7302 25.1252 60.7852 24.7902C60.8281 24.5306 60.7985 24.1175 60.4152 23.6241C60.0266 23.1235 59.3573 22.6396 58.37 22.1449C58.0404 21.9797 57.8834 21.8553 57.7172 21.7236C57.1325 21.2607 56.6974 20.9976 53.9055 20.538L38.6339 18.0245L36.0256 12.6207C35.9772 12.5203 35.9052 12.433 35.8159 12.3662C35.7266 12.2994 35.6225 12.2551 35.5125 12.237L34.5145 12.0727C34.4131 12.056 34.3092 12.062 34.2104 12.0903C34.1116 12.1186 34.0203 12.1685 33.9431 12.2364C33.8658 12.3042 33.8046 12.3884 33.7638 12.4828C33.723 12.5771 33.7037 12.6794 33.7072 12.7821L33.9085 18.683L32.9845 18.5272ZM59.3234 30.0885H33.3238C32.5927 30.0885 32 30.6812 32 31.4123C32 32.1434 32.5927 32.7361 33.3238 32.7361H59.3234C60.0545 32.7361 60.6472 32.1432 60.6472 31.4123C60.6472 30.6813 60.0545 30.0885 59.3234 30.0885Z" fill="white"/>
</g>
<path d="M103.717 22.4004H111.883" stroke="#09DAB4" stroke-width="1.2" stroke-linecap="round" stroke-linejoin="round"/>
<path d="M107.8 18.3174L111.883 22.4007L107.8 26.4841" stroke="#09DAB4" stroke-width="1.2" stroke-linecap="round" stroke-linejoin="round"/>
<rect x="123.3" y="0.5" width="91.8" height="43.8" rx="21.9" stroke="white"/>
<path d="M171.293 29.3287C171.481 28.1709 170.694 27.0802 169.536 26.8927C168.378 26.7052 167.288 27.4918 167.1 28.6496C166.913 29.8075 167.699 30.8981 168.857 31.0856C170.015 31.2732 171.106 30.4866 171.293 29.3287Z" fill="white"/>
<path d="M179.966 18.2254C176.905 15.1648 172.969 13.7656 169.2 13.7656C165.43 13.7656 161.494 15.1648 158.434 18.2254C157.588 19.0722 157.592 20.3835 158.426 21.221C159.467 22.2742 160.831 21.855 161.442 21.2239C163.515 19.1535 166.27 18.0134 169.2 18.0134C172.13 18.0134 174.885 19.1535 176.958 21.2239C177.568 21.855 178.932 22.2742 179.974 21.221C180.808 20.3835 180.812 19.0722 179.966 18.2254Z" fill="white"/>
<path d="M169.2 20.3164C167.088 20.3164 164.823 21.1015 163.067 22.8569C162.21 23.7135 162.227 25.0308 163.075 25.87C163.917 26.7064 165.228 26.7029 166.07 25.861C166.906 25.0248 168.018 24.5643 169.2 24.5643C170.383 24.5643 171.494 25.0248 172.331 25.861C173.173 26.7029 174.483 26.7064 175.325 25.87C176.173 25.0308 176.19 23.7135 175.333 22.8569C173.578 21.1015 171.312 20.3164 169.2 20.3164Z" fill="white"/>
<path d="M226.517 22.4004H234.683" stroke="#09DAB4" stroke-width="1.2" stroke-linecap="round" stroke-linejoin="round"/>
<path d="M230.6 18.3174L234.683 22.4007L230.6 26.4841" stroke="#09DAB4" stroke-width="1.2" stroke-linecap="round" stroke-linejoin="round"/>
<rect x="246.1" y="0.5" width="91.8" height="43.8" rx="21.9" stroke="white"/>
<path d="M291.023 19.7541C290.778 19.6667 290.554 19.5288 290.365 19.3494C290.177 19.17 290.028 18.953 289.929 18.7125C289.83 18.4719 289.782 18.2133 289.789 17.9532C289.796 17.6931 289.858 17.4373 289.97 17.2026C290.15 16.803 290.47 16.4829 290.87 16.3026L289.97 13.8771C289.912 13.7225 289.808 13.5894 289.672 13.4954C289.536 13.4013 289.375 13.3508 289.209 13.3506H281.523C281.39 13.348 281.257 13.3785 281.138 13.4393C281.018 13.5002 280.916 13.5895 280.839 13.6995C280.763 13.8094 280.715 13.9365 280.699 14.0695C280.683 14.2025 280.701 14.3373 280.749 14.4621L282.518 19.2501C282.705 19.7572 282.801 20.2935 282.801 20.8341V31.6881C282.801 32.0115 282.93 32.3217 283.159 32.5504C283.387 32.7791 283.698 32.9076 284.021 32.9076H291.05C291.373 32.9076 291.684 32.7791 291.912 32.5504C292.141 32.3217 292.269 32.0115 292.269 31.6881V21.1536C292.269 20.8219 292.242 20.4909 292.188 20.1636L291.023 19.7541ZM289.34 19.5201H285.249C285.163 19.5202 285.079 19.4928 285.01 19.4418C284.94 19.3908 284.888 19.3189 284.862 19.2366L283.814 15.9336C283.794 15.8726 283.789 15.8077 283.799 15.7443C283.809 15.681 283.834 15.6209 283.872 15.569C283.909 15.5172 283.959 15.475 284.016 15.4461C284.074 15.4171 284.137 15.4022 284.201 15.4026H288.134C288.218 15.4024 288.3 15.4283 288.368 15.4767C288.437 15.525 288.489 15.5935 288.516 15.6726L289.718 18.9756C289.739 19.036 289.746 19.1006 289.738 19.1642C289.729 19.2277 289.706 19.2883 289.669 19.341C289.633 19.3937 289.584 19.4371 289.528 19.4674C289.471 19.4977 289.409 19.5142 289.344 19.5156L289.34 19.5201ZM287.832 16.2441L288.732 18.6786H285.582L284.799 16.2441H287.832ZM296.081 13.4901C296.081 13.0878 296.2 12.6945 296.424 12.36C296.647 12.0255 296.965 11.7648 297.337 11.6109C297.708 11.4569 298.117 11.4167 298.512 11.4951C298.906 11.5736 299.269 11.7673 299.553 12.0518C299.838 12.3363 300.031 12.6987 300.11 13.0932C300.188 13.4878 300.148 13.8968 299.994 14.2684C299.84 14.6401 299.58 14.9578 299.245 15.1813C298.911 15.4048 298.517 15.5241 298.115 15.5241C297.848 15.5235 297.584 15.4703 297.337 15.3675C297.09 15.2647 296.867 15.1144 296.678 14.9251C296.49 14.7358 296.34 14.5113 296.239 14.2643C296.137 14.0173 296.085 13.7527 296.085 13.4856L296.081 13.4901ZM302.799 24.5196C302.584 24.5591 302.362 24.53 302.164 24.4363C301.966 24.3427 301.803 24.1892 301.697 23.9976C301.589 23.7861 300.999 22.8501 300.999 22.8501L301.449 31.9176C301.456 32.1751 301.368 32.4259 301.202 32.6231C301.036 32.8203 300.804 32.9503 300.549 32.9886C300.408 33.0037 300.264 32.9888 300.128 32.9448C299.992 32.9008 299.867 32.8287 299.761 32.7332C299.655 32.6377 299.57 32.5209 299.512 32.3905C299.454 32.26 299.424 32.1188 299.424 31.9761L299.082 27.5931C299.073 27.4723 299.038 27.3548 298.981 27.2482C298.923 27.1417 298.844 27.0483 298.748 26.9741C298.653 26.8999 298.542 26.8466 298.425 26.8176C298.307 26.7886 298.185 26.7845 298.065 26.8056C297.87 26.8451 297.694 26.9483 297.563 27.0989C297.433 27.2496 297.356 27.4392 297.345 27.6381L297.008 31.8816C297.008 32.0243 296.978 32.1655 296.92 32.296C296.862 32.4264 296.777 32.5432 296.671 32.6387C296.565 32.7342 296.44 32.8063 296.304 32.8503C296.169 32.8943 296.025 32.9092 295.883 32.8941C295.628 32.8558 295.396 32.7258 295.231 32.5286C295.065 32.3314 294.977 32.0806 294.983 31.8231V20.5281C294.983 20.4413 294.957 20.3565 294.907 20.2856C294.857 20.2146 294.786 20.161 294.704 20.1321L291.356 18.9486C291.221 18.9008 291.099 18.8252 290.995 18.7268C290.892 18.6284 290.81 18.5093 290.756 18.3773C290.702 18.2453 290.676 18.1033 290.68 17.9606C290.684 17.8179 290.718 17.6777 290.78 17.5491C290.9 17.3193 291.1 17.1414 291.342 17.0494C291.584 16.9573 291.852 16.9574 292.094 17.0496L292.863 17.3106C293.602 17.5786 294.395 17.6575 295.172 17.5401C295.878 17.4321 296.522 17.0361 297.246 17.0181C298.11 16.9274 298.982 16.9395 299.843 17.0541C300.941 17.2881 301.517 18.4041 301.89 19.3536C302.349 20.6766 302.993 21.9501 303.573 23.2236C303.615 23.3596 303.628 23.5028 303.611 23.644C303.594 23.7853 303.547 23.9214 303.474 24.0435C303.401 24.1657 303.304 24.2711 303.187 24.3531C303.071 24.4351 302.939 24.4918 302.799 24.5196Z" fill="white"/>
<path d="M349.316 22.4004H357.483" stroke="#09DAB4" stroke-width="1.2" stroke-linecap="round" stroke-linejoin="round"/>
<path d="M353.4 18.3174L357.484 22.4007L353.4 26.4841" stroke="#09DAB4" stroke-width="1.2" stroke-linecap="round" stroke-linejoin="round"/>
<rect x="368.9" y="0.5" width="91.8" height="43.8" rx="21.9" stroke="white"/>
<path d="M419.53 25.2705C419.53 25.3898 419.482 25.504 419.398 25.5883C419.313 25.6726 419.199 25.7202 419.08 25.7205C419.011 25.7215 418.946 25.7494 418.898 25.7983C418.85 25.8472 418.823 25.913 418.823 25.9815C418.823 26.1008 418.776 26.215 418.691 26.2993C418.607 26.3836 418.493 26.4312 418.373 26.4315H412.807C412.579 26.8807 412.4 27.3529 412.271 27.84H420.056C420.173 27.8397 420.288 27.8166 420.395 27.7719C420.502 27.7271 420.599 27.6618 420.681 27.5794C420.763 27.4971 420.828 27.3995 420.872 27.2921C420.916 27.1847 420.939 27.0696 420.938 26.9535V12.4365H419.53V25.2705Z" fill="white"/>
<path d="M415.989 28.7399C415.845 30.0307 415.377 31.2643 414.63 32.3264C414.451 32.5518 414.353 32.8307 414.351 33.1184V34.5494C414.351 34.6086 414.339 34.6671 414.317 34.7218C414.294 34.7765 414.261 34.8262 414.219 34.868C414.178 34.9098 414.128 34.943 414.073 34.9655C414.018 34.9881 413.96 34.9996 413.901 34.9994H404.356C404.237 34.999 404.123 34.9515 404.038 34.8672C403.954 34.7829 403.907 34.6686 403.906 34.5494V26.9309C403.908 26.2196 404.101 25.5218 404.464 24.9104L407.857 19.2539V26.6114L407.236 27.4394C407.165 27.5349 407.134 27.6549 407.151 27.773C407.168 27.8912 407.231 27.9978 407.326 28.0694C407.374 28.1049 407.427 28.1307 407.485 28.1453C407.542 28.16 407.601 28.1632 407.66 28.1549C407.778 28.138 407.885 28.0749 407.956 27.9794C409.423 26.0192 411.289 23.5334 412.767 21.5669C412.83 21.479 412.915 21.41 413.015 21.3673C413.114 21.3247 413.223 21.3099 413.33 21.3248C413.437 21.3396 413.538 21.3834 413.622 21.4515C413.706 21.5195 413.77 21.6092 413.806 21.7109C414.301 23.1194 412.663 24.5774 412.123 25.8059C411.618 26.7093 411.308 27.709 411.214 28.7399C411.228 30.1439 410.859 31.5344 409.698 32.5244C409.632 32.5858 409.585 32.6657 409.565 32.7537C409.544 32.8416 409.551 32.9337 409.583 33.018C409.616 33.1023 409.673 33.1749 409.747 33.2265C409.821 33.2781 409.909 33.3063 409.999 33.3074C410.109 33.3084 410.215 33.2683 410.296 33.1949C411.649 32.0384 412.136 30.3973 412.114 28.7399H415.989Z" fill="white"/>
<path d="M409.658 24.2085L410.171 23.529V12.4365H408.758V25.41C408.758 25.4055 409.663 24.2144 409.658 24.2085ZM414.045 24.3885C413.78 24.7935 413.532 25.1715 413.316 25.5315H418.014C418.132 25.2527 418.353 25.0302 418.631 24.9105V12.4365H411.071V22.3275L412.047 21.027C412.211 20.8116 412.43 20.6443 412.681 20.5428C412.932 20.4414 413.206 20.4095 413.474 20.4504C413.741 20.4914 413.993 20.6038 414.202 20.7758C414.411 20.9477 414.57 21.1729 414.662 21.4275C414.937 22.2803 414.817 23.2793 414.045 24.3885ZM412.448 17.625C412.549 14.4498 417.15 14.4503 417.254 17.625C417.153 20.8016 412.545 20.8002 412.448 17.625Z" fill="white"/>
<path d="M416.353 17.6253C416.353 17.2267 416.195 16.8444 415.913 16.5625C415.631 16.2807 415.249 16.1223 414.85 16.1223C414.452 16.1223 414.069 16.2807 413.788 16.5625C413.506 16.8444 413.347 17.2267 413.347 17.6253C413.347 18.0239 413.506 18.4062 413.788 18.6881C414.069 18.97 414.452 19.1283 414.85 19.1283C415.249 19.1283 415.631 18.97 415.913 18.6881C416.195 18.4062 416.353 18.0239 416.353 17.6253ZM423.526 9.7998H406.17C403.294 9.88665 403.267 14.0766 406.17 14.1693H407.857V12.4323C407.749 12.4185 407.649 12.3656 407.577 12.2836C407.505 12.2016 407.465 12.0961 407.465 11.9868C407.465 11.8775 407.505 11.772 407.577 11.69C407.649 11.608 407.749 11.5551 407.857 11.5413C407.955 11.5319 421.739 11.5332 421.839 11.5413C421.948 11.5543 422.048 11.6068 422.121 11.6889C422.194 11.771 422.234 11.877 422.234 11.9868C422.234 12.0966 422.194 12.2026 422.121 12.2847C422.048 12.3668 421.948 12.4193 421.839 12.4323V14.1693H423.526C426.411 14.0856 426.421 9.8925 423.526 9.7998Z" fill="white"/>
<defs>
<clipPath id="clip0_147_1683">
<rect width="28.8" height="28.8" fill="white" transform="translate(32 8)"/>
</clipPath>
</defs>
</svg>
